<?xml version="1.0" encoding="UTF-8" standalone="no"?>
<!DOCTYPE svg PUBLIC "-//W3C//DTD SVG 1.1//EN" "http://www.w3.org/Graphics/SVG/1.1/DTD/svg11.dtd">
<svg width="100%" height="100%" viewBox="0 0 2000 1000" version="1.1" xmlns="http://www.w3.org/2000/svg" xmlns:xlink="http://www.w3.org/1999/xlink" xml:space="preserve" xmlns:serif="http://www.serif.com/" style="fill-rule:evenodd;clip-rule:evenodd;stroke-linejoin:round;stroke-miterlimit:2;">
    <g transform="matrix(1,0,0,1,-9436,0)">
        <g id="balance-logo" transform="matrix(1,0,0,0.5,0,0)">
            <rect x="9436" y="0" width="2000" height="2000" style="fill:none;"/>
            <g transform="matrix(0.678428,0,0,1.35686,-6108.94,-583)">
                <g transform="matrix(4.16667,0,0,4.16667,22883,0)">
                    <g transform="matrix(1,0,0,1,306.847,372.712)">
                        <path d="M0,16.995C-0.308,16.841 -0.616,16.764 -0.911,16.764C-1.578,16.764 -2.129,17.098 -2.578,17.752C-2.629,17.842 -2.668,17.944 -2.719,18.034C-3.745,20.073 -4.861,22.087 -6.041,24.062C-8.427,28.077 -11.121,31.976 -14.122,35.734C-19.022,41.558 -24.614,45.098 -30.886,46.368L-31.566,46.445C-32.335,46.586 -33.49,46.663 -35.068,46.663C-38.903,46.663 -42.404,45.675 -45.534,43.712C-49.638,41.134 -52.165,36.825 -53.127,30.809C-53.281,29.385 -53.345,27.923 -53.345,26.41C-53.345,18.56 -51.383,10.492 -47.432,2.193C-45.342,-2.296 -42.558,-6.696 -39.146,-10.992C-37.325,-13.288 -35.311,-15.546 -33.118,-17.778C-31.027,-19.907 -28.757,-21.997 -26.333,-24.063C-24.845,-25.319 -23.357,-26.359 -21.869,-27.192C-21.433,-27.436 -21.01,-27.654 -20.574,-27.859C-17.983,-29.167 -15.712,-29.822 -13.737,-29.822C-13.237,-29.809 -12.762,-29.745 -12.326,-29.642C-11.172,-29.386 -10.223,-28.808 -9.492,-27.923C-9.184,-27.628 -8.901,-27.218 -8.658,-26.718C-8.401,-26.205 -8.273,-25.217 -8.273,-23.755C-8.273,-21.818 -8.696,-19.445 -9.517,-16.598C-9.581,-16.379 -9.645,-16.161 -9.71,-15.943C-10.056,-14.827 -10.505,-13.75 -11.069,-12.711C-12.249,-10.492 -13.917,-8.466 -16.084,-6.606C-16.546,-6.144 -16.777,-5.644 -16.777,-5.092C-16.777,-4.682 -16.597,-4.271 -16.238,-3.874C-15.892,-3.463 -15.456,-3.271 -14.956,-3.271C-14.494,-3.271 -14.071,-3.412 -13.66,-3.72C-10.53,-6.452 -8.222,-9.569 -6.721,-13.057C-6.17,-14.327 -5.721,-15.661 -5.4,-17.046C-4.887,-19.137 -4.63,-21.356 -4.63,-23.678C-4.63,-25.91 -4.887,-27.5 -5.387,-28.462C-6.978,-31.386 -9.299,-33.028 -12.326,-33.387C-12.762,-33.439 -13.198,-33.464 -13.66,-33.464L-14.045,-33.464C-16.443,-33.464 -19.047,-32.785 -21.869,-31.399C-22.023,-31.348 -22.164,-31.271 -22.318,-31.194C-24.434,-30.129 -26.589,-28.693 -28.77,-26.872C-30.822,-25.114 -32.772,-23.344 -34.593,-21.536C-37.248,-18.919 -39.672,-16.251 -41.866,-13.519C-48.728,-4.964 -53.281,4.143 -55.551,13.814C-56.565,18.162 -57.065,22.279 -57.065,26.179C-57.065,28.5 -56.898,30.681 -56.539,32.707C-55.218,39.133 -52.242,43.828 -47.586,46.817C-43.738,49.254 -39.544,50.459 -34.991,50.459C-33.669,50.459 -32.361,50.331 -31.04,50.087L-30.283,50.01C-23.1,48.689 -16.751,44.739 -11.236,38.171C-8.991,35.337 -6.926,32.438 -5.028,29.501C-4.387,28.513 -3.758,27.525 -3.168,26.538C-1.757,24.191 -0.449,21.818 0.757,19.419C0.782,19.381 0.795,19.355 0.808,19.317C0.936,19.098 0.988,18.88 0.988,18.662C0.975,18.65 0.975,18.65 0.988,18.65C0.988,17.995 0.654,17.457 0,16.995" style="fill:rgb(140,113,91);fill-rule:nonzero;"/>
                    </g>
                    <g transform="matrix(1,0,0,1,318.07,397.531)">
                        <path d="M0,-6.08C-1.411,-7.645 -2.399,-9.158 -2.95,-10.633C-3.155,-11.236 -3.258,-11.737 -3.258,-12.147C-3.258,-12.506 -3.13,-12.763 -2.873,-12.904L-2.732,-12.981C-2.424,-13.083 -2.091,-13.135 -1.744,-13.135C-0.975,-13.135 -0.321,-12.827 0.231,-12.224C1.796,-10.659 2.591,-7.824 2.591,-3.72C1.68,-4.438 0.808,-5.221 0,-6.08M-2.424,6.439C-3.284,6.849 -4.117,7.08 -4.925,7.131C-7.003,7.131 -8.619,6.067 -9.786,3.937C-10.274,3.027 -10.62,1.911 -10.787,0.628C-10.864,0.077 -10.915,-0.513 -10.928,-1.142C-10.928,-2.655 -10.761,-4.118 -10.415,-5.503C-10.364,-5.721 -10.312,-5.939 -10.235,-6.157C-10.248,-6.17 -10.248,-6.17 -10.235,-6.17C-9.928,-7.247 -9.517,-8.286 -9.004,-9.287C-8.825,-9.633 -8.619,-9.979 -8.414,-10.326C-8.017,-10.98 -7.555,-11.544 -7.055,-11.993C-6.849,-9.312 -5.413,-6.503 -2.732,-3.579C-1.36,-2.052 0.205,-0.77 1.975,0.295C1.219,3.078 -0.244,5.13 -2.424,6.439M18.073,-7.901C17.765,-8.055 17.482,-8.132 17.226,-8.132C16.636,-8.132 16.161,-7.876 15.789,-7.388C15.7,-7.286 15.623,-7.183 15.559,-7.068C14.815,-5.49 13.968,-4.259 13.019,-3.335C11.711,-2.078 10.21,-1.45 8.504,-1.45C7.747,-1.45 6.965,-1.578 6.157,-1.834C6.259,-2.784 6.298,-3.746 6.298,-4.708C6.298,-6.683 6.016,-8.568 5.426,-10.364C4.848,-12.16 4.002,-13.635 2.886,-14.802C1.578,-16.226 0.026,-16.931 -1.744,-16.931C-2.347,-16.931 -2.976,-16.829 -3.643,-16.623L-4.694,-16.7C-7.632,-16.392 -9.915,-14.956 -11.531,-12.378C-11.89,-11.788 -12.211,-11.198 -12.493,-10.595C-13.121,-9.364 -13.596,-8.094 -13.942,-6.785C-14.455,-4.926 -14.712,-2.989 -14.712,-0.988C-14.661,-0.026 -14.558,0.872 -14.391,1.719C-14.16,2.924 -13.827,4.002 -13.378,4.964C-13.288,5.169 -13.186,5.374 -13.083,5.566C-12.147,7.311 -10.967,8.632 -9.517,9.517C-8.081,10.402 -6.49,10.851 -4.771,10.851C-3.463,10.851 -2.116,10.466 -0.757,9.709C2.334,7.991 4.387,5.361 5.387,1.808C6.554,2.167 7.696,2.347 8.812,2.347C10.325,2.347 11.736,2.014 13.032,1.334C13.942,0.885 14.789,0.269 15.571,-0.513C16.854,-1.757 17.983,-3.425 18.983,-5.477C19.073,-5.721 19.124,-5.977 19.124,-6.234C19.124,-6.939 18.778,-7.491 18.073,-7.901" style="fill:rgb(140,113,91);fill-rule:nonzero;"/>
                    </g>
                    <g transform="matrix(1,0,0,1,368.991,397.749)">
                        <path d="M0,-8.119C-0.244,-8.222 -0.5,-8.273 -0.757,-8.273C-1.514,-8.273 -2.078,-7.914 -2.501,-7.221L-2.501,-7.208C-3.797,-4.399 -5.259,-1.783 -6.888,0.654C-7.657,1.822 -8.478,2.937 -9.325,4.028C-11.005,6.144 -12.365,7.209 -13.429,7.209C-13.93,7.209 -14.353,6.708 -14.673,5.695C-15.007,4.682 -15.174,3.245 -15.174,1.373C-15.174,-0.962 -14.866,-3.963 -14.263,-7.657C-14.007,-9.03 -13.878,-10.287 -13.878,-11.454C-13.878,-15.097 -14.994,-17.47 -17.226,-18.585C-17.931,-18.945 -18.663,-19.124 -19.419,-19.124C-21.856,-19.124 -24.383,-17.7 -27.013,-14.866C-28.231,-13.48 -29.308,-11.608 -30.258,-9.248C-30.694,-8.17 -31.104,-6.978 -31.489,-5.695L-31.566,-5.618C-31.527,-7.093 -31.425,-8.594 -31.271,-10.133C-31.066,-12.159 -30.758,-14.25 -30.347,-16.392L-30.347,-16.687C-30.347,-17.149 -30.501,-17.559 -30.809,-17.944C-31.104,-18.329 -31.566,-18.534 -32.169,-18.585C-32.579,-18.585 -32.951,-18.444 -33.31,-18.175C-33.669,-17.893 -33.888,-17.521 -33.99,-17.072C-34.349,-14.879 -34.631,-12.775 -34.849,-10.761C-34.965,-9.684 -35.068,-8.632 -35.132,-7.606C-35.286,-5.605 -35.363,-3.707 -35.363,-1.898C-35.363,-1.501 -35.363,-1.116 -35.35,-0.731C-35.35,0.436 -35.311,1.539 -35.26,2.553C-35.17,4.605 -34.991,6.362 -34.747,7.824L-34.67,8.196C-34.272,10.069 -33.695,11.005 -32.926,11.005C-32.374,11.005 -31.771,10.479 -31.104,9.415L-31.027,9.415C-30.784,9.107 -30.655,8.735 -30.655,8.273C-30.104,3.669 -29.206,-0.603 -28,-4.553C-26.884,-8.145 -25.614,-10.748 -24.204,-12.365C-22.434,-14.391 -20.869,-15.404 -19.496,-15.404C-18.945,-15.404 -18.47,-15.02 -18.098,-14.263C-17.713,-13.506 -17.521,-12.493 -17.521,-11.223C-17.521,-10.364 -17.624,-9.376 -17.829,-8.273C-18.534,-4.425 -18.893,-1.206 -18.893,1.373C-18.893,6.08 -17.829,9.056 -15.7,10.325C-15.045,10.723 -14.314,10.928 -13.506,10.928C-11.223,10.928 -8.876,9.415 -6.452,6.375C-6.259,6.144 -6.08,5.913 -5.913,5.682C-5.259,4.874 -4.63,4.04 -4.053,3.168C-2.206,0.5 -0.59,-2.45 0.834,-5.695C0.872,-5.759 0.911,-5.823 0.936,-5.887C1.026,-6.08 1.065,-6.298 1.065,-6.529C1.065,-7.183 0.718,-7.709 0,-8.119" style="fill:rgb(140,113,91);fill-rule:nonzero;"/>
                    </g>
                    <g transform="matrix(1,0,0,1,396.157,394.415)">
                        <path d="M0,-4.785C-0.244,-4.888 -0.5,-4.939 -0.757,-4.939C-1.36,-4.939 -1.847,-4.695 -2.232,-4.221C-2.322,-4.092 -2.411,-3.951 -2.501,-3.797C-3.386,-1.886 -4.553,-0.129 -6.016,1.449C-7.119,2.654 -8.388,3.77 -9.825,4.783C-13.134,7.105 -16.713,8.529 -20.561,9.029L-21.933,9.106C-25.14,9.106 -27.025,7.952 -27.59,5.617C-27.692,5.194 -27.756,4.745 -27.769,4.245C-27.769,3.18 -27.59,1.898 -27.243,0.371C-26.961,-0.629 -26.615,-1.604 -26.23,-2.553C-25.755,-3.708 -25.191,-4.836 -24.55,-5.927C-24.242,-6.465 -23.908,-7.004 -23.562,-7.517C-21.92,-9.941 -20.227,-11.763 -18.509,-12.981C-17.701,-13.533 -16.995,-13.84 -16.392,-13.892C-16.238,-13.892 -16.11,-13.815 -16.007,-13.661C-15.648,-13.212 -15.481,-12.34 -15.481,-11.083C-15.481,-9.864 -15.674,-8.222 -16.084,-6.145L-16.161,-5.696C-16.161,-5.285 -16.007,-4.9 -15.7,-4.516C-15.405,-4.131 -14.968,-3.951 -14.417,-3.951C-13.955,-3.951 -13.558,-4.08 -13.198,-4.323C-12.852,-4.58 -12.621,-4.939 -12.519,-5.388C-12.057,-7.671 -11.839,-9.582 -11.839,-11.16C-11.839,-13.174 -12.159,-14.674 -12.826,-15.636C-13.686,-16.945 -14.815,-17.611 -16.238,-17.611C-17.701,-17.56 -19.176,-17.021 -20.638,-16.008C-22.664,-14.597 -24.64,-12.481 -26.551,-9.672C-27.038,-8.966 -27.487,-8.248 -27.91,-7.504C-28.577,-6.337 -29.167,-5.131 -29.668,-3.887L-29.668,-3.874C-30.117,-2.797 -30.488,-1.681 -30.809,-0.539C-31.258,1.141 -31.489,2.629 -31.489,3.95C-31.489,4.873 -31.399,5.72 -31.22,6.502C-30.976,7.541 -30.591,8.465 -30.027,9.26C-29.847,9.529 -29.655,9.773 -29.437,10.017C-27.718,11.889 -25.294,12.826 -22.151,12.826C-21.497,12.826 -20.843,12.774 -20.176,12.672C-15.674,12.172 -11.492,10.555 -7.619,7.849C-6.913,7.349 -6.234,6.836 -5.592,6.271C-4.81,5.617 -4.066,4.912 -3.399,4.168C-1.59,2.244 -0.167,0.063 0.911,-2.361C1.013,-2.605 1.065,-2.861 1.065,-3.118C1.065,-3.772 0.718,-4.323 0,-4.785" style="fill:rgb(140,113,91);fill-rule:nonzero;"/>
                    </g>
                    <g transform="matrix(1,0,0,1,402.532,402.379)">
                        <path d="M0,-18.367C0.911,-18.367 1.372,-18.034 1.372,-17.379C1.372,-15.75 -0.154,-14.263 -3.194,-12.941C-3.643,-12.749 -4.117,-12.557 -4.63,-12.364L-3.938,-14.032C-2.527,-16.815 -1.206,-18.264 0,-18.367M15.186,-12.826C14.93,-12.929 14.673,-12.98 14.417,-12.98C13.711,-12.98 13.16,-12.621 12.75,-11.915C12.416,-11.159 12.018,-10.402 11.569,-9.671C10.813,-8.426 9.902,-7.221 8.837,-6.054C8.094,-5.233 7.273,-4.425 6.375,-3.642C3.951,-1.564 1.449,-0.372 -1.129,-0.076L-1.898,0.001C-2.552,0.001 -3.104,-0.128 -3.566,-0.372C-4.951,-0.961 -5.772,-2.257 -6.028,-4.296C-6.041,-4.412 -6.054,-4.514 -6.067,-4.63L-6.067,-5.464C-6.067,-6.272 -5.99,-7.157 -5.836,-8.119C-4.913,-8.401 -4.066,-8.683 -3.258,-8.991L-3.245,-8.991C1.18,-10.633 3.784,-12.569 4.553,-14.801C4.913,-15.661 5.092,-16.494 5.092,-17.302C5.092,-18.367 4.784,-19.303 4.181,-20.111C3.219,-21.42 1.924,-22.087 0.308,-22.087L-0.526,-22.01C-3.001,-21.804 -5.284,-19.624 -7.362,-15.481C-7.362,-15.468 -7.375,-15.468 -7.375,-15.455C-7.85,-14.314 -8.26,-13.224 -8.607,-12.185C-9.44,-9.632 -9.864,-7.4 -9.864,-5.464C-9.864,-4.886 -9.825,-4.322 -9.774,-3.796C-9.633,-2.744 -9.376,-1.782 -8.979,-0.923C-8.799,-0.513 -8.594,-0.128 -8.35,0.231C-7.529,1.501 -6.452,2.412 -5.079,2.963C-4.117,3.464 -3.001,3.72 -1.744,3.72L-0.834,3.643C2.578,3.246 5.746,1.771 8.658,-0.769C8.684,-0.782 8.709,-0.808 8.735,-0.833C9.658,-1.641 10.518,-2.462 11.313,-3.296C13.404,-5.515 15.02,-7.862 16.161,-10.325C16.264,-10.569 16.315,-10.825 16.315,-11.082C16.315,-11.787 15.943,-12.364 15.186,-12.826" style="fill:rgb(140,113,91);fill-rule:nonzero;"/>
                    </g>
                    <g transform="matrix(1,0,0,1,433.341,422.876)">
                        <path d="M0,-26.949C-1.924,-26.949 -3.861,-26.757 -5.798,-26.372C-7.747,-26 -9.633,-25.23 -11.454,-24.063C-12.057,-23.653 -12.596,-23.229 -13.045,-22.768L-13.275,-22.473C-13.045,-25.063 -12.788,-27.359 -12.493,-29.386L-12.493,-29.399C-12.378,-30.143 -12.262,-30.835 -12.134,-31.502C-12.083,-31.746 -12.031,-31.977 -11.98,-32.208L-11.98,-32.221C-10.646,-38.095 -8.953,-41.366 -6.901,-42.046C-6.452,-42.251 -5.99,-42.354 -5.541,-42.354C-4.425,-42.354 -3.335,-41.815 -2.27,-40.763C0,-38.48 1.141,-35.697 1.141,-32.413C1.141,-30.643 0.757,-28.822 0,-26.949M-2.347,-22.768C-4.477,-20.343 -6.772,-19.125 -9.261,-19.125C-9.812,-19.125 -10.236,-19.227 -10.543,-19.433L-10.697,-19.51L-10.62,-19.587C-10.569,-19.933 -10.146,-20.42 -9.325,-21.023C-7.106,-22.344 -4.656,-23.05 -1.975,-23.152L-2.347,-22.768ZM17.072,-33.247C16.828,-33.401 16.546,-33.478 16.238,-33.478C15.584,-33.478 15.033,-33.119 14.571,-32.413C14.532,-32.349 14.494,-32.272 14.455,-32.208C13.788,-30.938 12.968,-29.925 12.031,-29.181C11.441,-28.719 10.787,-28.347 10.094,-28.091C8.222,-27.372 6.17,-27.026 3.95,-27.026C4.553,-28.847 4.861,-30.592 4.861,-32.259C4.861,-36.659 3.348,-40.404 0.308,-43.495C-1.462,-45.214 -3.463,-46.073 -5.682,-46.073C-6.593,-46.073 -7.504,-45.868 -8.414,-45.458C-11.056,-44.444 -13.224,-41.212 -14.879,-35.774C-15.033,-35.273 -15.187,-34.76 -15.328,-34.234C-15.302,-34.799 -15.276,-35.35 -15.238,-35.876C-15.11,-38.249 -14.956,-40.186 -14.789,-41.674C-14.789,-42.174 -14.969,-42.61 -15.328,-42.995C-15.674,-43.38 -16.161,-43.559 -16.764,-43.559C-17.226,-43.559 -17.611,-43.418 -17.944,-43.11C-18.278,-42.802 -18.457,-42.405 -18.509,-41.892C-18.663,-40.212 -18.816,-37.98 -18.983,-35.171C-19.073,-33.67 -19.163,-32.003 -19.24,-30.168C-19.265,-29.745 -19.278,-29.296 -19.304,-28.847C-19.381,-27.18 -19.445,-25.5 -19.496,-23.794C-19.548,-22.575 -19.586,-21.344 -19.612,-20.1C-19.689,-16.893 -19.727,-13.609 -19.727,-10.249C-19.727,-8.03 -19.702,-5.824 -19.65,-3.643C-19.548,6.515 -18.688,13.749 -17.072,18.059C-16.713,18.765 -16.161,19.124 -15.405,19.124C-15.148,19.124 -14.866,19.072 -14.571,18.97C-14.263,18.867 -14.019,18.649 -13.84,18.316C-13.673,17.995 -13.583,17.623 -13.583,17.225C-13.788,10.851 -13.878,4.348 -13.878,-2.284C-13.878,-5.619 -13.853,-8.889 -13.801,-12.07L-13.583,-17.227C-12.724,-16.072 -11.223,-15.482 -9.107,-15.482C-5.618,-15.482 -2.399,-17.137 0.539,-20.42C1.244,-21.28 1.898,-22.242 2.514,-23.306L3.04,-23.306C5.977,-23.306 8.709,-23.678 11.236,-24.448C11.634,-24.576 12.031,-24.73 12.403,-24.91C13.25,-25.307 14.045,-25.833 14.789,-26.513C15.982,-27.565 17.046,-28.988 17.983,-30.746C18.085,-30.989 18.137,-31.246 18.137,-31.502C18.137,-32.208 17.79,-32.785 17.072,-33.247" style="fill:rgb(140,113,91);fill-rule:nonzero;"/>
                    </g>
                    <g transform="matrix(1,0,0,1,479.401,396.915)">
                        <path d="M0,-31.181C-1.821,-32.297 -4.617,-32.861 -8.414,-32.861C-12.006,-32.861 -17.547,-32.374 -25.037,-31.412L-26.179,-31.335C-25.512,-36.145 -25.037,-39.351 -24.729,-40.98L-24.729,-41.275C-24.729,-41.686 -24.896,-42.083 -25.23,-42.494C-25.55,-42.904 -25.999,-43.097 -26.551,-43.097C-27.461,-43.097 -28.103,-42.597 -28.449,-41.583L-28.68,-40.07C-29.039,-37.992 -29.488,-34.926 -30.04,-30.886C-35.106,-30.232 -39.249,-29.898 -42.494,-29.898C-45.38,-29.898 -47.124,-30.322 -47.727,-31.181C-48.176,-31.899 -48.741,-32.246 -49.395,-32.246C-49.651,-32.246 -49.895,-32.194 -50.151,-32.092C-50.908,-31.643 -51.293,-31.066 -51.293,-30.347C-51.293,-30.104 -51.242,-29.847 -51.139,-29.591C-50.074,-27.423 -46.74,-26.333 -41.122,-26.333C-37.941,-26.333 -34.401,-26.576 -30.501,-27.089C-31.22,-21.24 -31.604,-15.43 -31.643,-9.671L-31.643,-8.876C-31.643,-7.991 -31.63,-7.106 -31.604,-6.246C-31.579,-5.438 -31.54,-4.656 -31.489,-3.873C-31.451,-2.706 -31.374,-1.603 -31.271,-0.551C-31.155,0.488 -31.027,1.462 -30.848,2.386C-30.527,4.156 -30.078,5.734 -29.514,7.132C-28.141,10.325 -26.153,11.916 -23.524,11.916C-21.651,11.916 -19.573,11.044 -17.29,9.299C-15.02,7.555 -12.891,5.413 -10.915,2.886C-8.388,-0.308 -6.67,-2.911 -5.759,-4.925C-5.656,-5.13 -5.605,-5.361 -5.605,-5.618C-5.605,-6.323 -5.99,-6.901 -6.747,-7.362C-7.003,-7.465 -7.234,-7.516 -7.426,-7.516C-8.183,-7.516 -8.773,-7.131 -9.171,-6.375C-9.94,-4.656 -11.48,-2.347 -13.801,0.539C-15.571,2.86 -17.521,4.836 -19.65,6.452C-21.112,7.568 -22.331,8.145 -23.293,8.196C-24.46,8.196 -25.396,7.363 -26.102,5.695C-26.782,3.963 -27.269,1.796 -27.564,-0.808C-27.808,-2.873 -27.923,-5.195 -27.923,-7.811C-27.923,-8.414 -27.923,-9.004 -27.91,-9.607C-27.846,-15.469 -27.436,-21.446 -26.705,-27.538L-23.601,-27.923C-17.226,-28.782 -11.98,-29.219 -7.888,-29.219C-5.208,-29.219 -3.361,-28.885 -2.347,-28.231C-1.988,-27.923 -1.616,-27.769 -1.206,-27.769C-0.654,-27.769 -0.141,-28.026 0.308,-28.526C0.564,-28.885 0.693,-29.27 0.693,-29.667C0.693,-30.232 0.462,-30.732 0,-31.181" style="fill:rgb(140,113,91);fill-rule:nonzero;"/>
                    </g>
                </g>
                <g transform="matrix(4.16667,0,0,4.16667,22883,0)">
                    <g transform="matrix(1,0,0,1,190.998,302.089)">
                        <path d="M0,56.141L-21.446,56.141L-21.446,30.257L0,30.257C6.644,30.257 12.378,36.055 12.378,43.199C12.378,50.343 6.644,56.141 0,56.141M-21.446,0.397L-4.784,0.397C2.386,0.397 5.849,6.31 5.849,13.583C5.849,20.855 2.386,26.768 -4.771,26.768L-21.446,26.768L-21.446,0.397ZM8.722,27.41C8.478,27.32 7.632,27.051 7.632,27.051C7.632,27.051 8.247,26.473 8.44,26.307C11.762,23.139 15.366,18.79 15.366,14.006C15.366,4.348 5.477,-3.489 -4.771,-3.489L-31.181,-3.489L-31.181,59.63L2.732,59.63C12.467,59.63 21.985,52.19 21.985,43.032C21.985,35.85 15.52,29.718 8.722,27.41" style="fill:rgb(140,113,91);fill-rule:nonzero;"/>
                    </g>
                    <g transform="matrix(1,0,0,1,229.131,316.313)">
                        <path d="M0,28.09L0.231,27.449L15.161,-9.979L29.27,25.871L30.078,28.09L0,28.09ZM23.024,-16.225L22.587,-17.316L14.109,-17.316L12.698,-13.686L-10.338,43.187L-11.223,45.406L-7.029,45.406L-6.606,44.315L-2.514,34.234L-1.539,31.938L31.54,31.938L32.502,34.247L34.798,40.147C37.017,37.466 39.454,34.837 42.109,32.284L23.024,-16.225Z" style="fill:rgb(140,113,91);fill-rule:nonzero;"/>
                    </g>
                    <g transform="matrix(1,0,0,1,331.679,317.788)">
                        <path d="M0,26.128L0.231,25.487L15.161,-11.941L29.27,23.922L30.078,26.128L0,26.128ZM46.393,41.238L23.024,-18.187L22.587,-19.265L14.109,-19.265L12.698,-15.648L-7.504,34.247L-8.389,36.466L-4.181,36.466L-3.758,35.389L-2.514,32.285L-1.539,29.989L31.54,29.989L32.502,32.285L36.427,42.366L36.876,43.457L47.253,43.457L46.393,41.238ZM13.506,37.454C13.404,37.518 13.288,37.595 13.186,37.659C9.889,39.609 6.221,40.968 2.411,41.43C1.283,41.571 0.141,41.622 -1.026,41.622C-2.168,41.622 -3.335,41.571 -4.489,41.481C-6.837,41.289 -9.132,40.853 -11.493,40.301C-15.931,39.185 -21.125,37.774 -26.358,37.774C-26.576,37.774 -26.794,37.774 -27.013,37.787C-27.205,37.787 -27.397,37.787 -27.577,37.8C-27.859,39.16 -28.244,40.455 -28.731,41.725C-28.103,41.699 -27.513,41.687 -27,41.687L-26.32,41.687C-22.536,41.687 -18.932,42.495 -14.994,43.444C-14.289,43.623 -13.583,43.79 -12.865,43.97C-10.351,44.56 -7.683,45.047 -4.99,45.252C-3.861,45.342 -2.706,45.393 -1.539,45.393C0.026,45.393 1.603,45.291 3.194,45.06C5.374,44.739 7.491,44.188 9.517,43.444C12.006,42.533 14.353,41.34 16.469,39.904L13.506,37.454ZM-37.158,27.975C-37.517,27.808 -37.992,27.68 -38.646,27.667C-40.121,27.667 -42.032,28.232 -44.238,29.36C-45.059,29.758 -45.88,30.22 -46.701,30.745L-46.714,41.276L-46.714,44.098C-45.034,43.469 -42.199,42.956 -39.121,42.572C-38.261,41.327 -37.594,40.019 -37.145,38.647L-37.158,27.975ZM-37.184,-19.175L-46.676,-19.175L-46.676,-15.494L-46.701,20.702C-43.956,19.497 -41.327,18.894 -38.877,18.894L-38.492,18.894C-38.03,18.894 -37.594,18.92 -37.158,18.958L-37.184,-19.175Z" style="fill:rgb(140,113,91);fill-rule:nonzero;"/>
                    </g>
                    <g transform="matrix(1,0,0,1,437.689,361.72)">
                        <path d="M0,-62.786L0,-13.455L-46.098,-62.786L-50.203,-62.786L-50.203,0L-46.329,0L-46.329,-1.694L-46.316,-47.664L-1.962,0L3.835,0L3.835,-62.786L0,-62.786Z" style="fill:rgb(140,113,91);fill-rule:nonzero;"/>
                    </g>
                    <g transform="matrix(1,0,0,1,528.039,326.818)">
                        <path d="M0,5.593C0,5.375 0.154,5.17 0.398,5.093C6.298,3.4 6.849,2.412 14.455,2.091L17.636,-2.103C10.21,-1.795 6.272,-0.987 0.744,0.552C0.372,0.655 0,0.398 0,0.052L-0.141,-24.023L30.194,-24.023L34.144,-27.884L-9.658,-27.923L-9.671,-24.177L-9.658,2.258C-9.658,2.489 -9.838,2.194 -10.082,2.258C-19.971,5.016 -27.564,7.555 -42.494,1.335L-44.918,5.041C-36.466,8.582 -29.526,9.839 -23.37,9.839C-18.034,9.839 -15.071,8.889 -10.402,7.658C-10.03,7.568 -9.671,7.812 -9.671,8.158L-9.671,35.055L30.194,35.055L34.144,29.963L-0.141,29.963L0,5.593ZM-36.132,30.913C-50.767,33.157 -63.042,22.383 -66.031,6.876C-69.006,-8.619 -61.58,-23.061 -46.958,-25.319C-39.352,-26.499 -31.848,-24.126 -25.961,-19.431L-22.074,-23.433C-27.551,-27.358 -34.259,-29.693 -41.545,-29.693C-59.797,-29.693 -75.689,-15.122 -75.689,2.797C-75.689,20.715 -59.797,35.286 -41.545,35.286C-35.093,35.286 -29.078,33.426 -23.986,30.284L-26.769,27.411C-29.552,29.155 -32.695,30.374 -36.132,30.913" style="fill:rgb(140,113,91);fill-rule:nonzero;"/>
                    </g>
                </g>
                <g transform="matrix(4.16667,0,0,4.16667,22883,0)">
                    <g transform="matrix(1,0,0,1,348.633,255.723)">
                        <path d="M0,-32.054C-4.189,-32.443 -8.273,-33.29 -12.307,-33.096C-20.045,-32.722 -25.828,-28.835 -29.075,-21.705C-31.968,-15.354 -30.095,-9.295 -24.334,-5.405C-18.157,-1.233 -10.275,-1.213 -4.411,-6.083C4.736,-13.68 13.587,-21.634 22.508,-29.5C29.32,-35.507 37.115,-37.843 46.029,-35.935C55.995,-33.802 63.485,-25.831 63.848,-17.165C64.23,-8.038 57.322,0.587 47.274,3.53C39.485,5.81 30.728,4.403 22.036,-0.976C25.493,-0.197 27.898,0.411 30.329,0.881C40.489,2.848 49.663,-1.44 53.606,-9.956C56.737,-16.719 54.534,-23.588 48.045,-27.295C41.725,-30.906 33.972,-30.408 28.437,-25.605C20.651,-18.848 13.127,-11.79 5.379,-4.989C2.808,-2.731 -0.002,-0.699 -2.887,1.147C-12.915,7.563 -27.853,4.902 -35.138,-4.479C-40.507,-11.392 -40.455,-20.316 -35.005,-27.183C-26.887,-37.413 -10.982,-39.617 0,-32.054" style="fill:rgb(141,113,90);fill-rule:nonzero;"/>
                    </g>
                    <g transform="matrix(1,0,0,1,359.067,146.724)">
                        <path d="M0,73.838C-15.984,70.408 -28.809,54.3 -28.875,37.571C-28.938,21.475 -17.845,7.595 -2.095,4.065C16.041,0 33.34,13.958 32.716,32.155C32.185,47.656 15.262,58.545 2.164,51.814C-8.182,46.498 -10.395,33.357 -1.367,25.55C-2.144,27.011 -2.472,27.686 -2.852,28.332C-5.692,33.163 -5.498,37.923 -2.336,42.488C0.875,47.124 5.388,49.29 10.992,48.484C21.89,46.917 28.281,36.053 24.583,25.635C20.697,14.686 9.366,8.794 -1.901,11.863C-16.5,15.84 -25.48,30.364 -22.443,45.294C-20.069,56.962 -13.614,65.769 -3.344,71.786C-2.32,72.385 -1.284,72.963 -0.258,73.561C-0.154,73.621 -0.085,73.744 0,73.838" style="fill:rgb(141,113,90);fill-rule:nonzero;"/>
                    </g>
                    <g transform="matrix(0.999954,0.00964227,0.00964227,-0.999954,360.719,145.793)">
                        <path d="M0.134,-0C-7.607,-0.008 -13.794,6.137 -13.782,13.82C-13.769,21.337 -7.287,27.846 0.134,27.794C7.739,27.741 14.007,21.437 14.029,13.821C14.051,6.14 7.886,0.007 0.134,-0" style="fill:rgb(216,123,80);fill-rule:nonzero;"/>
                    </g>
                </g>
            </g>
        </g>
    </g>
</svg>
