<?xml version="1.0" encoding="UTF-8" standalone="no"?>
<!DOCTYPE svg PUBLIC "-//W3C//DTD SVG 1.1//EN" "http://www.w3.org/Graphics/SVG/1.1/DTD/svg11.dtd">
<svg width="100%" height="100%" viewBox="0 0 1000 1000" version="1.1" xmlns="http://www.w3.org/2000/svg" xmlns:xlink="http://www.w3.org/1999/xlink" xml:space="preserve" xmlns:serif="http://www.serif.com/" style="fill-rule:evenodd;clip-rule:evenodd;stroke-linejoin:round;stroke-miterlimit:2;">
    <g transform="matrix(1,0,0,1,-8386,0)">
        <g id="balance-logo-ludek" transform="matrix(0.5,0,0,1,4193,0)">
            <rect x="8386" y="0" width="2000" height="1000" style="fill:none;"/>
            <g transform="matrix(11.3872,0,0,5.69362,5275.21,-577.185)">
                <g transform="matrix(1,0,0,1,348.633,255.723)">
                    <path d="M0,-32.054C-4.189,-32.443 -8.273,-33.29 -12.307,-33.096C-20.045,-32.722 -25.828,-28.835 -29.075,-21.705C-31.968,-15.354 -30.095,-9.295 -24.334,-5.405C-18.157,-1.233 -10.275,-1.213 -4.411,-6.083C4.736,-13.68 13.587,-21.634 22.508,-29.5C29.32,-35.507 37.115,-37.843 46.029,-35.935C55.995,-33.802 63.485,-25.831 63.848,-17.165C64.23,-8.038 57.322,0.587 47.274,3.53C39.485,5.81 30.728,4.403 22.036,-0.976C25.493,-0.197 27.898,0.411 30.329,0.881C40.489,2.848 49.663,-1.44 53.606,-9.956C56.737,-16.719 54.534,-23.588 48.045,-27.295C41.725,-30.906 33.972,-30.408 28.437,-25.605C20.651,-18.848 13.127,-11.79 5.379,-4.989C2.808,-2.731 -0.002,-0.699 -2.887,1.147C-12.915,7.563 -27.853,4.902 -35.138,-4.479C-40.507,-11.392 -40.455,-20.316 -35.005,-27.183C-26.887,-37.413 -10.982,-39.617 0,-32.054" style="fill:rgb(141,113,90);fill-rule:nonzero;"/>
                </g>
                <g transform="matrix(1,0,0,1,359.067,146.724)">
                    <path d="M0,73.838C-15.984,70.408 -28.809,54.3 -28.875,37.571C-28.938,21.475 -17.845,7.595 -2.095,4.065C16.041,0 33.34,13.958 32.716,32.155C32.185,47.656 15.262,58.545 2.164,51.814C-8.182,46.498 -10.395,33.357 -1.367,25.55C-2.144,27.011 -2.472,27.686 -2.852,28.332C-5.692,33.163 -5.498,37.923 -2.336,42.488C0.875,47.124 5.388,49.29 10.992,48.484C21.89,46.917 28.281,36.053 24.583,25.635C20.697,14.686 9.366,8.794 -1.901,11.863C-16.5,15.84 -25.48,30.364 -22.443,45.294C-20.069,56.962 -13.614,65.769 -3.344,71.786C-2.32,72.385 -1.284,72.963 -0.258,73.561C-0.154,73.621 -0.085,73.744 0,73.838" style="fill:rgb(141,113,90);fill-rule:nonzero;"/>
                </g>
                <g transform="matrix(0.999954,0.00964227,0.00964227,-0.999954,360.719,145.793)">
                    <path d="M0.134,-0C-7.607,-0.008 -13.794,6.137 -13.782,13.82C-13.769,21.337 -7.287,27.846 0.134,27.794C7.739,27.741 14.007,21.437 14.029,13.821C14.051,6.14 7.886,0.007 0.134,-0" style="fill:rgb(216,123,80);fill-rule:nonzero;"/>
                </g>
            </g>
        </g>
    </g>
</svg>
